<?xml version="1.0" standalone="no"?>
<!DOCTYPE svg PUBLIC "-//W3C//DTD SVG 20010904//EN"
 "http://www.w3.org/TR/2001/REC-SVG-20010904/DTD/svg10.dtd">
<svg version="1.0" xmlns="http://www.w3.org/2000/svg"
 width="577.000000pt" height="577.000000pt" viewBox="0 0 577.000000 577.000000"
 preserveAspectRatio="xMidYMid meet">
<metadata>
Created by potrace 1.11, written by Peter Selinger 2001-2013
</metadata>
<g transform="translate(0.000000,577.000000) scale(0.100000,-0.100000)"
fill="#000000" stroke="none">
<path d="M2595 5754 c-855 -116 -1561 -707 -1824 -1527 -72 -224 -101 -427
-101 -698 0 -1135 563 -2214 1502 -2880 404 -287 903 -498 1393 -588 276 -52
308 -54 938 -58 l597 -5 0 1861 c0 1997 1 1952 -50 2183 -66 294 -206 596
-393 848 -91 122 -315 346 -437 437 -316 234 -666 377 -1054 428 -143 18 -431
18 -571 -1z m-376 -1239 c170 -54 299 -181 370 -364 l26 -66 3 -537 3 -538
-128 0 c-162 0 -272 14 -376 47 -313 98 -552 348 -639 668 -29 110 -32 324 -4
405 32 96 79 173 146 241 161 162 377 214 599 144z m1700 0 c173 -55 310 -192
373 -375 32 -90 31 -296 -1 -415 -85 -318 -327 -571 -638 -669 -104 -32 -215
-46 -376 -46 l-128 0 3 538 3 537 26 66 c38 98 76 157 143 225 158 157 376
208 595 139z"/>
<path d="M1940 4261 c-90 -29 -175 -105 -213 -189 -16 -35 -21 -67 -21 -127 0
-60 5 -92 21 -127 28 -62 96 -134 158 -166 44 -24 62 -27 145 -27 83 0 101 3
145 27 62 32 130 104 158 166 30 66 30 188 0 254 -29 63 -96 134 -158 166 -39
20 -68 26 -130 28 -44 2 -91 0 -105 -5z m148 -224 c68 -33 67 -150 -2 -187
-54 -29 -126 -9 -152 42 -35 68 -4 136 76 161 18 6 46 0 78 -16z"/>
<path d="M3630 4254 c-227 -82 -292 -371 -121 -541 69 -69 120 -88 231 -88 79
0 103 4 142 23 65 32 125 94 156 160 35 75 37 193 5 264 -29 63 -96 134 -158
166 -65 33 -187 41 -255 16z m168 -217 c68 -33 67 -150 -2 -187 -54 -29 -126
-9 -152 42 -35 68 -4 136 76 161 18 6 46 0 78 -16z"/>
</g>
</svg>
